<mxfile host="app.diagrams.net" modified="2021-03-10T07:26:10.235Z" agent="5.0 (Windows NT 10.0; Win64; x64) AppleWebKit/537.36 (KHTML, like Gecko) Chrome/88.0.4324.190 Safari/537.36" etag="a2Jww1BM4scdBAk3MwYM" version="14.4.6" type="github">
  <diagram id="7xxPRaCTb07UQARyvsE-" name="Page-1">
    <mxGraphModel dx="460" dy="1917" grid="1" gridSize="10" guides="1" tooltips="1" connect="1" arrows="1" fold="1" page="1" pageScale="1" pageWidth="827" pageHeight="1169" math="0" shadow="0">
      <root>
        <mxCell id="0" />
        <mxCell id="1" parent="0" />
        <mxCell id="HWTjK2aRKDfF1gV4Asgg-7" style="edgeStyle=orthogonalEdgeStyle;rounded=0;orthogonalLoop=1;jettySize=auto;html=1;entryX=0.5;entryY=0;entryDx=0;entryDy=0;" parent="1" source="HWTjK2aRKDfF1gV4Asgg-1" target="HWTjK2aRKDfF1gV4Asgg-2" edge="1">
          <mxGeometry relative="1" as="geometry">
            <Array as="points">
              <mxPoint x="440" y="175" />
            </Array>
          </mxGeometry>
        </mxCell>
        <mxCell id="HWTjK2aRKDfF1gV4Asgg-1" value="har 3 naboer (seg selv og to på hver side, eller hjørne)" style="rhombus;whiteSpace=wrap;html=1;" parent="1" vertex="1">
          <mxGeometry x="160" y="80" width="220" height="190" as="geometry" />
        </mxCell>
        <mxCell id="HWTjK2aRKDfF1gV4Asgg-8" style="edgeStyle=orthogonalEdgeStyle;rounded=0;orthogonalLoop=1;jettySize=auto;html=1;entryX=0.5;entryY=0;entryDx=0;entryDy=0;" parent="1" source="HWTjK2aRKDfF1gV4Asgg-2" target="HWTjK2aRKDfF1gV4Asgg-3" edge="1">
          <mxGeometry relative="1" as="geometry" />
        </mxCell>
        <mxCell id="HWTjK2aRKDfF1gV4Asgg-2" value="Legger til punktet" style="rounded=0;whiteSpace=wrap;html=1;" parent="1" vertex="1">
          <mxGeometry x="380" y="240" width="120" height="60" as="geometry" />
        </mxCell>
        <mxCell id="HWTjK2aRKDfF1gV4Asgg-4" style="edgeStyle=orthogonalEdgeStyle;rounded=0;orthogonalLoop=1;jettySize=auto;html=1;entryX=0;entryY=0.5;entryDx=0;entryDy=0;" parent="1" source="HWTjK2aRKDfF1gV4Asgg-3" target="HWTjK2aRKDfF1gV4Asgg-1" edge="1">
          <mxGeometry relative="1" as="geometry">
            <Array as="points">
              <mxPoint x="140" y="425" />
              <mxPoint x="140" y="175" />
            </Array>
          </mxGeometry>
        </mxCell>
        <mxCell id="HWTjK2aRKDfF1gV4Asgg-5" style="edgeStyle=orthogonalEdgeStyle;rounded=0;orthogonalLoop=1;jettySize=auto;html=1;" parent="1" source="HWTjK2aRKDfF1gV4Asgg-3" edge="1">
          <mxGeometry relative="1" as="geometry">
            <mxPoint x="440" y="590" as="targetPoint" />
          </mxGeometry>
        </mxCell>
        <mxCell id="HWTjK2aRKDfF1gV4Asgg-3" value="Ligger begge naboene på linje?" style="rhombus;whiteSpace=wrap;html=1;" parent="1" vertex="1">
          <mxGeometry x="355" y="350" width="170" height="150" as="geometry" />
        </mxCell>
        <mxCell id="HWTjK2aRKDfF1gV4Asgg-6" value="Nei" style="text;html=1;align=center;verticalAlign=middle;resizable=0;points=[];autosize=1;" parent="1" vertex="1">
          <mxGeometry x="270" y="560" width="30" height="20" as="geometry" />
        </mxCell>
        <mxCell id="HWTjK2aRKDfF1gV4Asgg-9" value="Ja" style="text;html=1;align=center;verticalAlign=middle;resizable=0;points=[];autosize=1;" parent="1" vertex="1">
          <mxGeometry x="300" y="280" width="30" height="20" as="geometry" />
        </mxCell>
        <mxCell id="HWTjK2aRKDfF1gV4Asgg-11" style="edgeStyle=orthogonalEdgeStyle;rounded=0;orthogonalLoop=1;jettySize=auto;html=1;entryX=0.5;entryY=0;entryDx=0;entryDy=0;" parent="1" source="HWTjK2aRKDfF1gV4Asgg-10" target="HWTjK2aRKDfF1gV4Asgg-1" edge="1">
          <mxGeometry relative="1" as="geometry" />
        </mxCell>
        <mxCell id="HWTjK2aRKDfF1gV4Asgg-10" value="Tar inn et punkt" style="rounded=1;whiteSpace=wrap;html=1;" parent="1" vertex="1">
          <mxGeometry x="200" y="-20" width="120" height="60" as="geometry" />
        </mxCell>
      </root>
    </mxGraphModel>
  </diagram>
</mxfile>
